<svg xmlns="http://www.w3.org/2000/svg" xmlns:xlink="http://www.w3.org/1999/xlink" display="none">
	<symbol viewBox="-5 -7 36 32" id="github">
		<path d="M25.047 17.422C22.984 21.594 17.313 22 13.25 22 9.125 22 3.109 21.641.969 17.422.172 15.844 0 13.984 0 12.25c0-2.281.625-4.438 2.125-6.188a8.585 8.585 0 0 1-.422-2.656c0-1.172.266-2.343.797-3.406 2.469 0 4.047 1.078 5.922 2.547A20.895 20.895 0 0 1 13.25 2c1.469 0 2.953.156 4.375.5C19.484 1.047 21.063 0 23.5 0a7.629 7.629 0 0 1 .797 3.406c0 .891-.141 1.781-.422 2.625C25.375 7.797 26 9.969 26 12.25c0 1.734-.172 3.578-.953 5.172zM18.5 10.5c-1.031 0-2.016.188-3.047.328-.812.125-1.625.172-2.453.172s-1.641-.047-2.453-.172c-1.016-.14-2.016-.328-3.047-.328-2.547 0-4 2.109-4 4.5 0 4.781 4.375 5.516 8.188 5.516h2.625c3.813 0 8.188-.734 8.188-5.516-.001-2.391-1.454-4.5-4.001-4.5zM8 18c-1.406 0-2-1.859-2-3s.594-3 2-3 2 1.859 2 3-.594 3-2 3zm10 0c-1.406 0-2-1.859-2-3s.594-3 2-3 2 1.859 2 3-.594 3-2 3z"/>
	</symbol>
	<symbol viewBox="-20 -20 155.139 155.139" id="fb" width="30px" height="25px">
			<path  d="M89.584,155.139V84.378h23.742l3.562-27.585H89.584V39.184
		c0-7.984,2.208-13.425,13.67-13.425l14.595-0.006V1.08C115.325,0.752,106.661,0,96.577,0C75.52,0,61.104,12.853,61.104,36.452
		v20.341H37.29v27.585h23.814v70.761H89.584z"/>
	</symbol>
	<symbol viewBox="-5 -5 34 32.94" id="in">
		<path d="M2.875 5.344h-.031C1.109 5.344 0 4.156 0 2.672 0 1.156 1.156 0 2.906 0c1.766 0 2.859 1.156 2.875 2.672.016 1.484-1.109 2.672-2.906 2.672zm2.578 17.594H.297V7.453h5.156v15.485zm18.547 0h-5.141v-8.281c0-2.078-.75-3.5-2.609-3.5-1.422 0-2.266.953-2.641 1.875-.125.344-.172.797-.172 1.266v8.641h-5.14c.063-14.031 0-15.484 0-15.484h5.141v2.25h-.031c.672-1.063 1.891-2.609 4.672-2.609 3.391 0 5.922 2.219 5.922 6.969v8.873z"/>
	</symbol>
</svg>